<?xml version="1.0" standalone="no"?>
<!DOCTYPE svg PUBLIC "-//W3C//DTD SVG 20010904//EN"
 "http://www.w3.org/TR/2001/REC-SVG-20010904/DTD/svg10.dtd">
<svg version="1.0" xmlns="http://www.w3.org/2000/svg"
 width="350.000000pt" height="50.000000pt" viewBox="0 0 350.000000 50.000000"
 preserveAspectRatio="xMidYMid meet">

<g transform="translate(0.000000,50.000000) scale(0.100000,-0.100000)"
fill="#000000" stroke="none">
<path d="M963 440 c-53 -66 -69 -71 -123 -40 l-35 21 28 -26 c15 -14 35 -25
43 -25 29 0 12 -30 -58 -104 -66 -68 -77 -76 -110 -76 -95 0 -81 135 18 176
38 16 84 4 84 -21 0 -18 -26 -20 -33 -2 -4 8 -6 9 -6 0 -1 -16 29 -45 42 -40
6 2 15 11 21 20 13 21 -14 52 -61 68 -123 40 -210 -165 -91 -216 59 -24 116
12 210 133 28 36 47 52 64 52 l23 0 -21 -60 c-21 -58 -23 -60 -57 -60 -27 0
-42 -8 -73 -42 -21 -23 -38 -45 -38 -50 0 -4 -7 -8 -15 -8 -19 0 -20 -16 -1
-27 7 -4 23 -27 35 -50 22 -43 53 -68 74 -59 7 2 5 5 -5 5 -28 2 -58 50 -58
95 0 49 39 102 81 111 26 6 26 6 22 -42 -4 -41 -2 -51 18 -68 13 -11 18 -13
12 -5 -15 16 -17 68 -4 88 10 17 47 11 43 -7 -2 -9 3 -11 14 -7 10 4 48 -1 85
-11 58 -15 77 -15 126 -5 43 9 68 9 97 1 42 -12 95 -5 137 17 23 12 29 11 39
-1 33 -40 146 -38 194 3 18 16 19 16 13 -1 -4 -12 -1 -20 11 -24 9 -4 20 -11
23 -16 3 -5 9 -1 13 8 4 12 0 18 -14 22 -11 3 -20 9 -20 14 0 16 27 10 71 -16
76 -43 139 -29 198 42 17 21 31 33 31 26 0 -21 64 -73 98 -79 43 -8 103 9 142
43 32 26 53 25 30 -2 -8 -10 -9 -15 -1 -15 21 0 11 -35 -18 -67 -16 -18 -57
-50 -92 -73 -34 -22 -55 -40 -47 -40 21 0 126 78 161 119 34 41 41 68 54 231
3 36 10 71 15 78 8 9 7 11 -5 6 -10 -4 -29 4 -48 20 -17 14 -39 26 -49 26 -10
0 -22 5 -25 10 -3 6 -28 10 -55 10 -47 0 -49 -1 -69 -43 -25 -52 -26 -87 -5
-133 22 -45 44 -56 115 -55 32 0 60 -3 63 -8 18 -29 -94 -96 -141 -85 -37 9
-92 50 -105 80 -9 20 -8 28 8 46 10 12 14 18 8 15 -35 -20 -42 66 -9 109 15
19 15 19 9 -1 -6 -17 -3 -16 21 7 19 18 26 32 21 44 -6 15 -9 15 -30 -5 -14
-13 -30 -36 -36 -52 -7 -16 -14 -29 -15 -29 -2 0 -19 16 -38 35 -47 47 -92 48
-136 4 -32 -31 -33 -52 -3 -47 10 1 23 -1 30 -5 7 -5 12 -4 12 2 0 6 -9 16
-19 23 -26 16 -9 38 29 38 56 0 128 -92 96 -122 -11 -11 -11 -15 2 -24 21 -15
0 -76 -39 -109 -39 -32 -85 -33 -130 -2 -27 19 -34 30 -32 53 2 29 2 29 -15 9
-9 -12 -26 -27 -37 -35 -20 -15 -20 -14 -1 8 13 15 20 38 20 71 1 26 7 56 15
65 13 16 12 16 -12 5 -31 -14 -35 -12 -46 29 -15 52 29 109 48 61 l8 -24 8 24
c18 58 -50 49 -78 -11 -19 -39 -8 -101 20 -116 12 -7 9 -10 -15 -15 -38 -8
-70 -50 -53 -71 7 -8 21 -12 31 -9 22 6 24 11 10 33 -8 13 -10 13 -10 0 0 -10
-3 -11 -11 -3 -16 16 -2 33 26 33 35 0 51 -34 31 -66 -29 -44 -61 -57 -125
-52 -33 2 -66 10 -74 17 -13 10 -12 15 7 36 12 13 34 51 48 84 26 60 26 61 5
49 -12 -7 -25 -12 -28 -11 -3 1 -13 -12 -23 -29 l-18 -30 26 18 27 17 -21 -35
c-11 -19 -29 -43 -39 -52 -18 -16 -20 -16 -35 6 -18 25 -21 58 -6 58 6 0 10
-9 10 -19 0 -11 3 -22 8 -24 4 -3 7 11 7 31 0 35 -4 39 -34 34 -5 -1 -21 -18
-35 -37 -15 -19 -20 -32 -13 -29 9 3 23 -7 36 -25 21 -30 21 -30 2 -40 -25
-14 -121 -14 -121 -1 0 5 8 14 19 19 10 6 26 26 35 46 9 19 25 39 35 45 10 5
28 29 39 52 l20 43 -30 14 c-17 8 -41 32 -54 53 -15 24 -32 38 -45 38 -19 0
-19 -1 -5 -22 22 -31 20 -38 -12 -38 -36 0 -96 -56 -112 -105 -9 -27 -17 -35
-35 -35 -12 0 -33 -9 -46 -21 -23 -19 -23 -20 -2 -10 43 21 72 14 87 -23 8
-18 20 -37 27 -42 18 -11 -16 -22 -71 -23 -58 -1 -116 27 -113 54 1 19 1 19
-12 2 -15 -20 -63 -14 -72 9 -3 7 7 45 22 83 16 39 25 77 21 87 -6 15 -9 15
-34 -7 -15 -13 -2 2 28 34 52 55 53 57 27 57 -20 0 -37 -13 -74 -60z m1222 41
c3 -6 -4 -15 -15 -21 -12 -6 -20 -21 -20 -35 0 -30 25 -33 40 -5 9 17 8 20 -7
20 -15 0 -16 2 -3 10 54 35 157 -31 119 -76 -10 -12 -9 -13 5 -8 15 6 17 1 14
-37 l-3 -44 -70 4 c-38 1 -78 7 -88 12 -30 16 -49 56 -50 105 0 38 4 51 22 66
25 20 47 23 56 9z m-796 -77 c15 -11 21 -23 18 -35 -3 -11 -1 -17 4 -13 5 3 9
-2 9 -11 0 -24 -62 -45 -135 -45 -59 0 -65 2 -65 21 0 29 54 81 76 72 15 -6
14 -7 -6 -15 -22 -8 -23 -9 -4 -22 13 -10 23 -11 31 -4 19 15 16 45 -4 57 -15
9 -12 10 17 11 20 0 46 -7 59 -16z m-39 -135 c0 -14 -50 -59 -66 -59 -12 0
-54 46 -54 59 0 3 27 7 60 8 35 1 60 -2 60 -8z"/>
<path d="M1107 478 c-9 -31 -2 -33 17 -3 13 20 14 25 2 25 -7 0 -16 -10 -19
-22z"/>
<path d="M2420 474 c13 -34 3 -73 -28 -106 -14 -16 -20 -28 -14 -28 7 0 21 -9
32 -20 23 -23 27 -86 7 -114 -16 -22 -60 -18 -65 7 -5 22 24 22 37 -1 9 -14
10 -12 11 14 0 40 -23 51 -50 24 -43 -43 -9 -96 54 -84 l37 6 -4 -38 c-3 -22
-2 -30 0 -20 9 37 34 64 74 80 81 32 137 12 165 -59 20 -54 12 -72 -11 -24 -8
19 -13 26 -10 16 3 -10 1 -27 -5 -37 -7 -13 -6 -21 5 -30 11 -9 18 -7 34 9 26
26 26 44 2 98 -29 62 -68 79 -148 64 -34 -6 -69 -14 -77 -17 -11 -4 -14 5 -13
50 1 31 5 56 8 56 3 0 19 -12 34 -26 27 -25 28 -27 11 -39 -15 -11 -11 -13 26
-8 24 3 52 14 63 25 13 13 15 17 5 13 -9 -3 -47 14 -89 41 l-72 47 7 41 c4 22
7 47 7 54 0 19 49 -32 149 -155 124 -154 187 -183 250 -116 18 19 23 35 21 70
-2 55 -25 91 -76 116 -31 16 -43 17 -69 8 -40 -14 -68 -39 -68 -61 0 -22 24
-32 39 -17 15 15 15 50 -1 41 -7 -4 -8 -3 -4 4 4 7 25 12 46 12 51 0 96 -38
111 -92 16 -60 1 -88 -47 -88 -57 0 -88 26 -205 173 -108 134 -111 137 -149
137 -38 0 -39 -1 -30 -26z"/>
<path d="M1474 460 c-32 -12 -42 -32 -11 -21 37 14 69 -7 82 -53 l11 -40 16
23 c18 25 17 27 -29 77 -23 26 -35 28 -69 14z"/>
<path d="M1020 424 c10 -17 10 -30 -5 -75 -10 -30 -22 -60 -28 -66 -7 -10 -4
-13 10 -13 10 0 23 -4 29 -9 6 -6 10 6 11 35 1 24 3 60 4 79 2 24 -3 41 -15
53 -17 16 -18 16 -6 -4z"/>
<path d="M1982 135 c-64 -30 -176 -65 -206 -65 -11 0 -28 4 -36 10 -12 7 -11
12 5 30 15 17 16 20 3 15 -25 -10 -31 -38 -12 -52 34 -24 116 -11 227 38 83
37 104 33 57 -10 -66 -60 -113 -76 -225 -76 -109 0 -138 10 -249 90 -26 19
-58 35 -71 35 -25 0 -49 -24 -60 -60 -4 -14 -13 -28 -19 -32 -7 -5 -5 -8 5 -8
9 0 24 -11 33 -25 11 -16 26 -25 43 -25 l26 0 -23 25 c-16 17 -19 25 -9 25 10
1 9 3 -3 11 -11 6 -18 22 -18 40 0 27 3 30 23 24 12 -4 45 -25 72 -46 85 -64
127 -79 236 -79 87 0 101 3 157 31 73 36 122 79 122 108 0 27 -13 26 -78 -4z"/>
</g>
</svg>
